<?xml version="1.0" encoding="UTF-8"?>
<!DOCTYPE svg PUBLIC "-//W3C//DTD SVG 1.1//EN" "http://www.w3.org/Graphics/SVG/1.1/DTD/svg11.dtd">
<!-- Creator: CorelDRAW -->
<svg xmlns="http://www.w3.org/2000/svg" xml:space="preserve" width="101.6mm" height="50.8mm" version="1.1" style="shape-rendering:geometricPrecision; text-rendering:geometricPrecision; image-rendering:optimizeQuality; fill-rule:evenodd; clip-rule:evenodd"
viewBox="0 0 10159.98 5080"
 xmlns:xlink="http://www.w3.org/1999/xlink"
 xmlns:xodm="http://www.corel.com/coreldraw/odm/2003">
 <defs>
  <style type="text/css">
   <![CDATA[
    .str0 {stroke:#70CF97;stroke-width:70.56;stroke-miterlimit:2.61313}
    .fil0 {fill:#031947}
    .fil2 {fill:#70CF97;fill-rule:nonzero}
    .fil1 {fill:url(#id0)}
   ]]>
  </style>
  <linearGradient id="id0" gradientUnits="userSpaceOnUse" x1="4348.67" y1="563.91" x2="4637.2" y2="3716.26">
   <stop offset="0" style="stop-opacity:1; stop-color:#EA032B"/>
   <stop offset="0.380392" style="stop-opacity:1; stop-color:#EA032B"/>
   <stop offset="0.439216" style="stop-opacity:1; stop-color:white"/>
   <stop offset="0.560784" style="stop-opacity:1; stop-color:white"/>
   <stop offset="0.619608" style="stop-opacity:1; stop-color:#70CF97"/>
   <stop offset="1" style="stop-opacity:1; stop-color:#70CF97"/>
  </linearGradient>
 </defs>
 <g id="Layer_x0020_1">
  <metadata id="CorelCorpID_0Corel-Layer"/>
  <polygon class="fil0" points="-0.01,-0.03 10160.05,-0.03 10160.05,5080 -0.01,5080 "/>
  <path class="fil1" d="M1903.02 2705.4l8.02 36.88c-134.57,10.58 -262.58,-28.86 -301.59,-142.85 -10.92,-128.2 112.19,-251.86 252.07,-275.72l41.5 381.69zm1203.5 -107.53l-21.87 -105.75 -27.88 -239.63 -7.07 -83.58 90.93 -10.42 14.27 81.94 31.39 259.36c12.37,100.76 15.6,86.27 -79.77,98.08zm-165.7 24.74c-20.69,-98.83 -61.23,-345.39 -46.27,-437.81l81.99 -10.33c23.15,65.1 55.84,358.46 55.06,432.93l-90.78 15.21zm-893.18 113.1l-81.5 7.08 -20.16 -79.49c-13.72,-100.33 -38.3,-265.4 -31.11,-360.2 104.23,-24.21 845.61,-111.32 901.3,-96.4l46.76 346.38c2.25,11.31 3.57,21.1 3.98,29.55l0.02 0.07 -0.02 0c3.28,65.48 -46.65,52.4 -131.87,63.07l-687.4 89.94zm-1861.72 -1.02c173.58,-93.32 1092.66,-195.4 1357.12,-229.19l16.49 127.39c-221.17,34.22 -654.83,82.55 -860.79,96.53 -91.55,6.17 -179.15,13.83 -269.13,18.2 -40.97,1.93 -185.63,12.29 -224.43,-1.32 -17.89,-6.24 -7.26,-1.92 -19.26,-11.61zm8831.18 -248.19l-670.01 -643.66c-46.05,-44.24 -55.92,-124.7 -21.93,-178.78l494.36 -786.65c34,-54.07 88.69,-29.36 145.54,-17.86l700.53 141.71c26.87,5.41 235.07,236.39 293.29,499.54l-1308.69 160.69c-30.47,3.74 -52.35,31.74 -48.6,62.2l0 0.02c3.73,30.47 31.75,52.35 62.21,48.6l1309.74 -160.82c10.7,262.41 -142.75,527.13 -166.82,539.02l-644.08 318.14c-52.11,25.72 -99.49,62.11 -145.54,17.85zm-2692.55 115.95c-1.73,-60.98 -7.25,-119.66 -16.81,-176.16l-495.03 -171.25 472.44 68.24 83.58 12.02c68.53,-77.94 132.13,-131.24 189.79,-160.96 77.38,-41.13 158.21,-61.27 241.22,-61.27 130.54,0 236.01,43.31 314.68,129.22 78.66,85.92 118.51,220.79 118.51,405.66 0,180.51 -38.99,316.27 -117.81,407.24 -77.93,90.99 -176.88,136.33 -297.42,136.33 -106.75,0 -195.43,-40.42 -277.14,-108.95 -86.35,-72.43 -205.73,-156.46 -215.86,-476.63l-0.15 -3.49zm1875.51 -922.97l23.8 193.94 -349.45 57.25 -539.2 -216 864.85 -35.19zm-3438.13 622.94c178.93,-33.46 364.35,-69.25 555.89,-107.2 26.51,18.98 51.27,41.86 74.46,68.67 78.66,91.69 118.36,225.28 118.36,399.99 0,171.1 -38.26,299.61 -114.02,385.52 -76.49,85.91 -171.1,129.24 -284.39,129.24 -122.72,0 -226.01,-47.68 -311.19,-143 -84.46,-95.32 -127.07,-226.73 -127.07,-394.94 0,-140.38 29.14,-253.1 87.96,-338.28zm2573.28 -587.75l-4123.4 424.7 47.21 400.18c10.3,87.27 174.51,-16.48 260.18,-28.64 24.18,61.13 36.34,132.68 36.34,214.98 0,141.56 -38.24,254.12 -114.88,338.72 -77.22,84.33 -173.27,126.91 -288.01,126.91 -110.54,0 -200.65,-33.9 -271.48,-100.98 -71.45,-67.22 -123.46,-188.48 -157.36,-362.47l-862 114.88c56.36,193.41 137.19,354.51 241.8,482.15 105.46,127.78 239.04,224.57 402.17,291.06 162.4,66.34 384.79,99.53 666.42,99.53 289.46,0 522.58,-44.63 700.19,-134.16 73.46,-37.09 139.65,-80.71 198.92,-130.68 -156.18,-201.52 -264.26,-499.52 -256.29,-785.22 27.97,145.73 68.81,274.09 122.56,385.23 111.86,231.64 262.08,400.71 449.83,506.03 187.62,106.21 435.95,158.8 746.4,158.8 258.47,0 472.87,-43.31 644.72,-129.97 171.09,-86.48 304.67,-215.13 401.43,-384.05 12.6,-22.17 24.49,-44.78 35.5,-67.66 -48.53,180.38 -128.08,351.31 -265.27,464.03 10.14,34.33 -107.64,-60.99 350.59,59.26 145.9,38.97 321.34,58.39 525.62,58.39 284.4,0 518.36,-48.25 701.05,-145.74 182.54,-97.51 323.37,-238.34 423.03,-423.03 98.81,-184.88 148.65,-376.98 148.65,-576.92 0,-251.17 -75.02,-464.34 -224.72,-639.33l-539.2 -216zm-1427.74 -1152.35l2033.61 0 -681.51 688.74 -692.37 0 -56.92 359.15c-709.6,81.85 -1304.59,159.65 -1799.78,226.74 82,-73.18 165.45,-129.39 250.76,-168.65 108.96,-49.84 234,-75.04 376.12,-75.04 140.65,0 270.18,25.5 388.68,76.65l57.68 -352.79 -381.34 46.52c-22.44,-119.1 -59.95,-202.83 -112.69,-251.23 -53.31,-49.1 -118.37,-73.74 -195.59,-73.74 -139.36,0 -247.58,70.12 -324.94,210.96 -53.2,96.02 -93.32,294.37 -120.24,595.7 -892.15,121.26 -1450.08,205.58 -1762.71,211.24l25.35 -348.57c46.8,7.23 83.58,10.86 110.39,10.86 111.11,0 204.28,-36.06 278.59,-107.63 74.47,-71.43 112,-155.9 112,-254.1 0,-94.63 -28.12,-169.68 -83.74,-225.31 -56.35,-56.21 -133.58,-84.46 -231.08,-84.46 -100.99,0 -182.54,30.44 -246.15,91.72 -62.87,60.7 -105.31,167.61 -127.78,319.88l-814.33 -145.18c67.8,-259.17 197.01,-457.66 389.86,-596.29 191.94,-137.91 464.16,-207.19 815.79,-207.19 404.2,0 695.97,75.06 876.51,226 179.63,150.84 269.89,340.76 269.89,568.81 42.44,-152.42 28.83,-309.61 -70.86,-473.74 228.91,-214 532.73,-321.07 912.13,-321.07 246.88,0 441.89,28.13 584.73,85.21 38.98,15.49 76.2,33.02 111.56,52.57l9.86 515.18 75.61 -462 22.91 -138.94z"/>
  <path class="fil2 str0" d="M1942.89 4560.24m602.53 -305.76c0,50.81 -8.67,95.96 -26.03,134.54 -17.36,38.57 -42.16,70.55 -75.62,95.96 -33.47,24.46 -74.39,44.22 -122.74,56.44 -48.36,12.24 -106.62,18.82 -173.57,18.82l-166.13 0c-8.68,0 -17.36,-2.82 -26.04,-7.53 -8.68,-4.7 -12.4,-13.16 -12.4,-24.46l0 -530.6c0,-12.24 3.72,-19.76 12.4,-25.4 8.68,-4.71 17.36,-6.59 26.04,-6.59l177.29 0c68.18,0 125.21,6.59 172.33,19.75 47.11,13.18 86.78,32.93 117.77,57.4 32.23,25.39 55.79,55.5 71.91,91.25 16.12,34.81 24.79,75.26 24.79,120.42zm-109.1 2.83c0,-31.99 -4.95,-62.1 -16.11,-89.38 -9.91,-28.22 -26.04,-51.74 -48.35,-72.44 -23.56,-19.75 -50.83,-35.75 -85.55,-47.04 -34.71,-11.29 -79.35,-16.93 -132.65,-16.93l-106.62 0 0 462.87 107.86 0c49.58,0 91.75,-4.71 126.45,-14.11 34.72,-9.41 63.24,-24.46 85.55,-44.22 23.55,-18.82 40.91,-44.22 52.07,-73.38 11.16,-29.17 17.35,-64.92 17.35,-105.37z"/>
  <path class="fil2 str0" d="M2604.52 4560.24m669.48 -28.23c3.71,6.6 4.95,12.24 4.95,16.94 1.25,3.76 -1.24,6.59 -3.71,9.41 -3.72,1.88 -8.69,2.82 -16.12,3.76 -7.44,0.95 -17.35,0.95 -29.75,0.95 -12.41,0 -23.56,0 -31,-0.95 -7.44,0 -12.4,-0.94 -16.12,-1.88 -3.72,-0.94 -7.44,-2.82 -8.67,-4.7 -2.49,-1.88 -3.73,-3.77 -4.97,-6.59l-66.95 -144.88 -326.05 0 -64.47 143c-1.25,2.82 -2.48,4.7 -4.96,6.59 -1.24,2.81 -4.96,3.76 -8.67,5.64 -3.73,0.94 -8.69,1.88 -16.13,2.82 -7.43,0.95 -16.12,0.95 -27.27,0.95 -12.39,0 -21.08,0 -28.52,-0.95 -7.43,-0.94 -13.64,-2.82 -16.11,-4.7 -3.72,-1.88 -4.96,-5.65 -4.96,-9.41 1.24,-3.76 2.48,-9.4 6.19,-16l261.6 -552.24c2.48,-3.76 4.96,-6.58 7.44,-8.47 2.48,-2.82 6.2,-3.76 11.16,-5.64 4.95,-0.94 11.15,-1.88 19.83,-1.88 7.44,-0.94 17.36,-0.94 29.75,-0.94 12.4,0 23.56,0 32.24,0.94 7.45,0 14.88,0.94 19.84,1.88 4.95,1.88 9.92,3.76 12.39,5.64 2.49,1.89 4.97,4.71 6.21,8.47l262.83 552.24zm-337.22 -487.33l0 0 -135.14 296.35 272.75 0 -137.61 -296.35z"/>
  <path class="fil2 str0" d="M3228.53 4560.24m334.75 -231.43l0 219.2c0,2.82 -1.25,4.7 -2.49,6.59 -1.24,1.87 -3.72,3.76 -8.67,4.7 -3.73,0.94 -8.69,1.88 -16.13,2.82 -6.19,0.95 -14.88,0.95 -24.79,0.95 -9.93,0 -17.36,0 -24.79,-0.95 -6.21,-0.94 -12.41,-1.88 -16.13,-2.82 -3.72,-0.94 -7.43,-2.83 -8.67,-4.7 -1.24,-1.89 -2.49,-3.77 -2.49,-6.59l0 -219.2 -221.92 -334.93c-3.71,-7.52 -6.19,-13.17 -7.43,-16.93 -1.24,-3.76 0,-6.59 2.48,-9.41 3.72,-1.88 8.68,-2.82 16.11,-3.76 8.68,-0.94 18.61,-0.94 32.24,-0.94 12.39,0 22.31,0 29.75,0.94 7.44,0.94 13.65,0.94 17.36,2.82 4.96,0.94 7.45,1.88 9.91,3.76 2.49,2.83 4.97,4.71 6.21,8.47l109.1 170.29c9.92,16.93 19.84,33.87 29.75,50.8 9.92,17.87 19.84,35.75 31,54.56l1.24 0c8.67,-17.87 18.59,-34.81 28.51,-52.68 9.92,-16.94 19.85,-33.87 29.76,-50.81l109.1 -172.16c1.24,-2.82 2.47,-5.64 4.95,-7.53 2.49,-2.82 4.97,-3.76 8.68,-4.7 3.72,-1.88 9.93,-1.88 16.13,-2.82 7.43,-0.94 16.11,-0.94 26.03,-0.94 14.87,0 26.03,0 34.71,0.94 7.45,0.94 13.64,1.88 17.36,4.7 2.48,1.88 3.71,4.71 2.48,9.41 0,3.76 -3.72,8.47 -7.45,15.99l-221.9 334.93z"/>
  <path class="fil2 str0" d="M3847.17 4560.24m482.27 -166.52c0,27.28 -6.2,51.75 -19.83,74.32 -13.64,21.64 -32.23,39.51 -57.03,54.57 -23.56,15.05 -52.07,27.28 -84.3,34.81 -32.24,7.52 -68.19,11.29 -105.39,11.29 -26.03,0 -50.83,-1.89 -73.14,-4.7 -22.32,-3.77 -42.15,-8.47 -59.52,-13.18 -17.35,-4.7 -32.23,-9.41 -44.63,-15.05 -11.15,-5.64 -19.84,-9.41 -24.79,-13.17 -4.96,-3.76 -7.44,-8.46 -9.92,-14.11 -2.48,-5.65 -3.72,-13.17 -3.72,-22.58 0,-6.59 0,-12.24 1.24,-16.94 1.24,-4.7 2.48,-7.52 3.73,-10.35 1.23,-2.81 3.71,-4.7 6.19,-5.64 2.48,-1.88 4.96,-1.88 8.67,-1.88 4.97,0 13.64,2.82 23.56,7.52 9.92,5.65 23.56,11.3 39.67,16.94 16.12,6.58 35.96,12.23 58.27,16.93 23.56,5.65 49.6,8.47 79.35,8.47 22.32,0 43.4,-2.82 61.99,-6.58 18.59,-4.71 34.72,-11.3 48.35,-19.76 13.64,-8.47 23.56,-18.81 31,-31.05 7.43,-12.22 11.16,-26.34 11.16,-41.39 0,-16.94 -4.97,-31.05 -14.89,-43.28 -9.91,-12.23 -23.56,-22.58 -39.67,-31.99 -17.36,-8.46 -35.95,-16.93 -57.03,-24.46 -21.07,-7.52 -43.39,-15.05 -64.47,-22.57 -22.31,-8.47 -44.63,-16.94 -65.7,-26.35 -21.08,-9.41 -39.67,-20.69 -55.8,-32.93 -16.11,-13.16 -29.75,-28.22 -39.66,-46.09 -11.16,-16.94 -16.13,-37.64 -16.13,-62.1 0,-24.46 6.21,-47.03 17.36,-65.85 12.39,-19.76 28.52,-35.75 49.59,-48.92 22.32,-13.17 47.12,-23.52 75.63,-30.11 29.75,-6.59 60.75,-10.35 95.46,-10.35 17.37,0 34.71,0.95 52.08,3.76 17.35,1.89 33.48,4.71 49.59,8.47 14.88,3.77 29.75,8.47 40.91,13.18 12.4,4.7 21.07,8.46 24.79,11.28 3.72,2.83 6.2,5.65 7.44,7.53 1.24,0.94 1.24,3.76 2.48,5.65 1.24,2.81 1.24,6.58 2.48,10.35 0,2.81 0,7.52 0,14.11 0,5.64 0,10.35 -1.24,14.11 0,4.7 -1.24,8.46 -2.48,11.29 -1.24,2.82 -2.48,4.7 -4.96,6.58 -2.48,0.94 -4.95,1.89 -7.44,1.89 -4.95,0 -11.16,-1.89 -21.07,-6.59 -9.92,-4.71 -21.08,-9.41 -34.72,-14.12 -13.63,-5.64 -29.75,-10.34 -48.34,-15.05 -18.6,-4.7 -39.68,-6.58 -63.23,-6.58 -22.32,0 -40.93,1.88 -57.04,6.58 -16.11,4.71 -29.75,10.35 -40.9,17.88 -9.92,7.53 -17.37,15.99 -23.56,25.4 -4.96,10.35 -7.44,21.64 -7.44,32.93 0,15.99 4.96,30.1 14.87,42.34 9.92,12.22 23.56,22.57 40.92,31.98 16.11,8.47 35.95,16.94 57.03,24.46 21.07,8.47 43.39,15.99 65.7,23.52 22.32,7.53 43.4,15.99 65.71,25.4 21.08,9.41 39.68,20.7 57.03,33.87 16.12,12.23 29.75,27.29 40.91,44.22 9.93,17.87 14.88,37.63 14.88,62.09zm428.96 166.52m602.54 -305.76c0,50.81 -8.68,95.96 -26.03,134.54 -17.37,38.57 -42.16,70.55 -75.63,95.96 -33.48,24.46 -74.4,44.22 -122.74,56.44 -48.35,12.24 -106.62,18.82 -173.57,18.82l-166.13 0c-8.68,0 -17.35,-2.82 -26.04,-7.53 -8.68,-4.7 -12.4,-13.16 -12.4,-24.46l0 -530.6c0,-12.24 3.72,-19.76 12.4,-25.4 8.69,-4.71 17.36,-6.59 26.04,-6.59l177.29 0c68.18,0 125.22,6.59 172.33,19.75 47.12,13.18 86.78,32.93 117.77,57.4 32.24,25.39 55.8,55.5 71.91,91.25 16.12,34.81 24.8,75.26 24.8,120.42zm-109.1 2.83c0,-31.99 -4.96,-62.1 -16.11,-89.38 -9.93,-28.22 -26.04,-51.74 -48.36,-72.44 -23.56,-19.75 -50.83,-35.75 -85.55,-47.04 -34.71,-11.29 -79.34,-16.93 -132.65,-16.93l-106.62 0 0 462.87 107.86 0c49.59,0 91.74,-4.71 126.45,-14.11 34.71,-9.41 63.24,-24.46 85.56,-44.22 23.54,-18.82 40.9,-44.22 52.06,-73.38 11.16,-29.17 17.36,-64.92 17.36,-105.37z"/>
  <path class="fil2 str0" d="M5419.41 4560.24m669.48 -28.23c3.71,6.6 4.95,12.24 4.95,16.94 1.24,3.76 -1.24,6.59 -3.71,9.41 -3.73,1.88 -8.69,2.82 -16.12,3.76 -7.44,0.95 -17.36,0.95 -29.76,0.95 -12.39,0 -23.55,0 -30.99,-0.95 -7.44,0 -12.39,-0.94 -16.12,-1.88 -3.72,-0.94 -7.43,-2.82 -8.68,-4.7 -2.48,-1.88 -3.72,-3.77 -4.96,-6.59l-66.95 -144.88 -326.06 0 -64.47 143c-1.24,2.82 -2.47,4.7 -4.95,6.59 -1.25,2.81 -4.97,3.76 -8.68,5.64 -3.72,0.94 -8.68,1.88 -16.12,2.82 -7.44,0.95 -16.12,0.95 -27.27,0.95 -12.4,0 -21.09,0 -28.52,-0.95 -7.44,-0.94 -13.64,-2.82 -16.12,-4.7 -3.72,-1.88 -4.95,-5.65 -4.95,-9.41 1.23,-3.76 2.47,-9.4 6.18,-16l261.61 -552.24c2.48,-3.76 4.95,-6.58 7.43,-8.47 2.49,-2.82 6.2,-3.76 11.16,-5.64 4.96,-0.94 11.16,-1.88 19.84,-1.88 7.43,-0.94 17.35,-0.94 29.75,-0.94 12.4,0 23.56,0 32.24,0.94 7.44,0 14.88,0.94 19.83,1.88 4.96,1.88 9.93,3.76 12.4,5.64 2.48,1.89 4.96,4.71 6.21,8.47l262.83 552.24zm-337.22 -487.33l0 0 -135.14 296.35 272.75 0 -137.61 -296.35zm468.62 515.56m523.19 -12.23c0,2.82 -1.23,4.7 -2.47,6.59 -1.25,1.87 -3.73,3.76 -7.45,4.7 -3.71,0.94 -9.91,1.88 -17.35,2.82 -7.44,0.95 -17.35,0.95 -28.51,0.95 -11.16,0 -19.85,0 -26.04,-0.95 -6.2,-0.94 -12.4,-1.88 -16.13,-2.82 -3.71,-1.88 -7.43,-3.76 -9.91,-5.64 -1.24,-2.83 -3.71,-5.65 -4.95,-9.41l-71.92 -140.18c-8.68,-15.99 -17.35,-31.04 -27.27,-44.22 -8.68,-13.17 -19.83,-24.46 -32.23,-34.81 -12.4,-9.4 -27.28,-16.94 -43.39,-22.58 -17.36,-4.7 -38.44,-7.52 -61.99,-7.52l-69.43 0 0 253.07c0,2.82 -1.24,4.7 -2.48,6.59 -2.48,1.87 -4.96,3.76 -8.68,4.7 -3.72,0.94 -8.67,1.88 -16.12,2.82 -6.2,0.95 -14.87,0.95 -24.79,0.95 -9.91,0 -18.61,0 -24.79,-0.95 -7.44,-0.94 -12.41,-1.88 -16.13,-2.82 -3.71,-0.94 -7.43,-2.83 -8.68,-4.7 -1.23,-1.89 -2.48,-3.77 -2.48,-6.59l0 -550.36c0,-12.24 3.73,-19.76 12.4,-25.4 8.69,-4.71 17.36,-6.59 26.04,-6.59l167.38 0c19.83,0 35.94,0 49.58,0.94 12.4,0.94 24.8,1.88 34.72,2.82 30.99,3.77 57.03,10.35 80.58,18.82 23.55,8.47 42.16,18.82 58.27,31.98 16.12,13.18 27.28,28.23 35.96,46.11 7.43,16.93 11.16,35.74 11.16,55.5 0,19.76 -3.73,37.63 -9.93,53.62 -7.44,16 -17.36,30.11 -30.99,42.34 -13.64,11.29 -29.76,22.58 -48.35,31.05 -18.6,8.47 -38.43,15.99 -61.99,22.58 12.4,4.7 24.79,9.41 34.71,15.99 11.16,6.59 21.09,15.05 29.76,23.52 8.67,9.41 17.35,20.7 26.03,31.99 7.45,12.23 16.12,25.4 23.56,40.45l70.67 131.71c4.96,10.35 8.68,18.82 11.16,22.58 1.24,4.7 2.47,8.47 2.47,10.35zm-157.44 -417.71c0,-23.52 -6.21,-43.28 -21.09,-59.27 -13.63,-15.99 -35.95,-27.29 -68.19,-34.81 -9.91,-1.88 -22.31,-3.76 -34.71,-4.7 -12.4,-0.95 -28.51,-0.95 -49.59,-0.95l-88.02 0 0 200.4 101.67 0c27.27,0 50.82,-2.83 71.9,-7.53 19.84,-5.65 35.95,-12.23 49.58,-21.64 13.64,-8.47 22.32,-19.76 29.77,-31.99 6.19,-12.23 8.68,-25.4 8.68,-39.51z"/>
  <path class="fil2 str0" d="M6786.65 4560.24m585.18 -560.71c0,5.64 0,10.34 -1.24,15.05 -1.23,3.76 -2.48,7.53 -3.72,10.35 -2.48,2.82 -3.72,4.7 -6.2,5.64 -3.71,0.95 -6.19,1.89 -8.68,1.89l-220.68 0 0 515.55c0,2.82 -1.23,4.7 -2.47,6.59 -1.25,1.87 -3.72,3.76 -8.68,4.7 -3.72,0.94 -8.68,1.88 -16.12,2.82 -6.2,0.95 -14.88,0.95 -24.8,0.95 -9.91,0 -17.35,0 -24.79,-0.95 -6.2,-0.94 -12.39,-1.88 -16.12,-2.82 -3.72,-0.94 -7.43,-2.83 -8.68,-4.7 -1.24,-1.89 -2.47,-3.77 -2.47,-6.59l0 -515.55 -219.44 0c-3.73,0 -6.2,-0.94 -8.68,-1.89 -3.73,-0.94 -4.97,-2.82 -7.44,-5.64 -1.24,-2.82 -2.48,-6.59 -3.72,-10.35 -1.25,-4.71 -1.25,-9.41 -1.25,-15.05 0,-5.65 0,-11.29 1.25,-15.05 1.24,-4.71 2.48,-8.47 3.72,-11.29 2.47,-2.83 3.71,-4.71 7.44,-5.65 2.48,-0.94 4.95,-1.88 8.68,-1.88l544.25 0c2.49,0 4.97,0.94 8.68,1.88 2.48,0.94 3.72,2.82 6.2,5.65 1.24,2.82 2.49,6.58 3.72,11.29 1.24,3.76 1.24,9.4 1.24,15.05z"/>
  <path class="fil2 str0" d="M7418.31 4560.24m482.28 -166.52c0,27.28 -6.21,51.75 -19.84,74.32 -13.64,21.64 -32.24,39.51 -57.03,54.57 -23.56,15.05 -52.07,27.28 -84.31,34.81 -32.23,7.52 -68.19,11.29 -105.38,11.29 -26.03,0 -50.83,-1.89 -73.15,-4.7 -22.31,-3.77 -42.15,-8.47 -59.51,-13.18 -17.35,-4.7 -32.23,-9.41 -44.63,-15.05 -11.15,-5.64 -19.84,-9.41 -24.79,-13.17 -4.96,-3.76 -7.45,-8.46 -9.92,-14.11 -2.48,-5.65 -3.72,-13.17 -3.72,-22.58 0,-6.59 0,-12.24 1.24,-16.94 1.24,-4.7 2.48,-7.52 3.72,-10.35 1.23,-2.81 3.72,-4.7 6.2,-5.64 2.48,-1.88 4.96,-1.88 8.68,-1.88 4.95,0 13.63,2.82 23.55,7.52 9.92,5.65 23.56,11.3 39.67,16.94 16.12,6.58 35.96,12.23 58.28,16.93 23.55,5.65 49.59,8.47 79.34,8.47 22.32,0 43.39,-2.82 61.98,-6.58 18.6,-4.71 34.72,-11.3 48.36,-19.76 13.63,-8.47 23.56,-18.81 30.99,-31.05 7.44,-12.22 11.16,-26.34 11.16,-41.39 0,-16.94 -4.96,-31.05 -14.88,-43.28 -9.92,-12.23 -23.55,-22.58 -39.67,-31.99 -17.36,-8.46 -35.96,-16.93 -57.03,-24.46 -21.08,-7.52 -43.39,-15.05 -64.47,-22.57 -22.31,-8.47 -44.63,-16.94 -65.71,-26.35 -21.07,-9.41 -39.66,-20.69 -55.79,-32.93 -16.11,-13.16 -29.74,-28.22 -39.67,-46.09 -11.16,-16.94 -16.11,-37.64 -16.11,-62.1 0,-24.46 6.2,-47.03 17.36,-65.85 12.39,-19.76 28.51,-35.75 49.58,-48.92 22.32,-13.17 47.12,-23.52 75.63,-30.11 29.75,-6.59 60.75,-10.35 95.46,-10.35 17.36,0 34.72,0.95 52.08,3.76 17.35,1.89 33.47,4.71 49.58,8.47 14.88,3.77 29.75,8.47 40.91,13.18 12.4,4.7 21.08,8.46 24.8,11.28 3.73,2.83 6.19,5.65 7.44,7.53 1.24,0.94 1.24,3.76 2.48,5.65 1.24,2.81 1.24,6.58 2.48,10.35 0,2.81 0,7.52 0,14.11 0,5.64 0,10.35 -1.24,14.11 0,4.7 -1.24,8.46 -2.48,11.29 -1.24,2.82 -2.49,4.7 -4.95,6.58 -2.49,0.94 -4.97,1.89 -7.45,1.89 -4.96,0 -11.16,-1.89 -21.08,-6.59 -9.91,-4.71 -21.07,-9.41 -34.71,-14.12 -13.63,-5.64 -29.76,-10.34 -48.35,-15.05 -18.59,-4.7 -39.66,-6.58 -63.22,-6.58 -22.32,0 -40.92,1.88 -57.04,6.58 -16.12,4.71 -29.74,10.35 -40.9,17.88 -9.93,7.53 -17.37,15.99 -23.56,25.4 -4.97,10.35 -7.44,21.64 -7.44,32.93 0,15.99 4.96,30.1 14.87,42.34 9.91,12.22 23.56,22.57 40.91,31.98 16.12,8.47 35.96,16.94 57.03,24.46 21.08,8.47 43.4,15.99 65.71,23.52 22.32,7.53 43.39,15.99 65.71,25.4 21.08,9.41 39.68,20.7 57.03,33.87 16.11,12.23 29.76,27.29 40.91,44.22 9.92,17.87 14.89,37.63 14.89,62.09z"/>
 </g>
</svg>
